<svg xmlns="http://www.w3.org/2000/svg" viewBox="0 0 234 234"><defs><style>.cls-1{fill:#3289b4;}.cls-2{fill:#fff;}</style></defs><title>Addpacelorpath</title><g id="Layer_2" data-name="Layer 2"><g id="choose_add" data-name="choose add"><circle class="cls-1" cx="117" cy="117" r="117"/><path class="cls-2" d="M186,110.07v13.08a5.34,5.34,0,0,1-5.35,5.35H128.5v51.93A5.54,5.54,0,0,1,123,186H110.25a5.54,5.54,0,0,1-5.53-5.53V128.5H52.61a5.35,5.35,0,0,1-5.35-5.35V110.07a5.36,5.36,0,0,1,5.35-5.35h52.11V52.79a5.54,5.54,0,0,1,5.53-5.53H123a5.54,5.54,0,0,1,5.53,5.53v51.93h52.11A5.35,5.35,0,0,1,186,110.07Z"/></g></g></svg>