<svg xmlns="http://www.w3.org/2000/svg" viewBox="0 0 163.26 118.51"><defs><style>.cls-1{fill:none;stroke-width:8px;}.cls-1,.cls-2{stroke:#666;stroke-miterlimit:10;}.cls-2{fill:#fff;stroke-width:4px;}.cls-3{fill:#666;}</style></defs><title>InclickedPathempty</title><g id="Layer_2" data-name="Layer 2"><g id="Layer_1-2" data-name="Layer 1"><path class="cls-1" d="M142.38,33.18v44c0,12.71-9,23-20.16,23.09,0-9.78-7-17.71-15.54-17.71s-15.54,7.93-15.54,17.71H54.07c0-9.78-7-17.71-15.54-17.71S23,90.53,23,100.31H4V65.37H67.2V14.63h58.9C135.09,14.63,142.38,22.94,142.38,33.18Z"/><ellipse class="cls-1" cx="38.53" cy="101.11" rx="11.76" ry="13.4"/><ellipse class="cls-1" cx="106.56" cy="100.31" rx="11.76" ry="13.4"/><ellipse class="cls-2" cx="141.26" cy="24.27" rx="20" ry="22.27"/><rect class="cls-3" x="140.03" y="5.46" width="2.45" height="37.63" rx="0.92"/><rect class="cls-3" x="139.84" y="7.98" width="2.83" height="32.58" rx="0.9" transform="translate(116.99 165.53) rotate(-90)"/></g></g></svg>